<svg width="200" height="200" viewBox="0 0 200 200" fill="none" xmlns="http://www.w3.org/2000/svg">
<g clip-path="url(#clip0_5910_20876)">
<path d="M199.875 95H159.492C159.061 80.0528 156.694 65.7028 152.617 52.7972C161.106 50.175 167.611 47.4722 171.647 45.625C176.775 52.3667 180.986 59.8417 184.067 67.8778C187.411 66.7361 190.542 65.5861 193.461 64.45C189.594 54.3139 184.111 44.975 177.347 36.725C177.119 36.3611 176.856 36.0333 176.553 35.7472C158.2 13.9056 130.694 0 100 0C69.3056 0 41.7917 13.9083 23.4361 35.7556C23.1417 36.0361 22.8806 36.3583 22.6556 36.7139C15.8889 44.9694 10.4028 54.3111 6.53333 64.45C2.88333 74.0222 0.655556 84.2889 0.125 95C0.0416667 96.6556 0 98.3222 0 100C0 101.678 0.0444444 103.344 0.125 105H40.5083C40.9389 119.947 43.3056 134.294 47.3833 147.2C38.8944 149.822 32.3861 152.525 28.3528 154.372C23.225 147.631 19.0111 140.153 15.9306 132.119C12.5861 133.261 9.45556 134.411 6.53611 135.55C10.4056 145.689 15.8917 155.031 22.6556 163.286C22.8806 163.644 23.1389 163.967 23.4361 164.247C41.7917 186.092 69.3 200 100 200C130.7 200 158.158 186.117 176.517 164.306C176.858 163.989 177.158 163.622 177.408 163.206C184.144 154.969 189.608 145.656 193.464 135.55C197.117 125.978 199.344 115.708 199.875 104.997C199.958 103.342 200 101.675 200 99.9972C200 98.3194 199.956 96.6528 199.875 94.9972V95ZM95 189.522C84.1278 187.486 73.8889 178.853 65.7528 164.683C63.8194 161.317 62.0611 157.722 60.4778 153.947C70.2972 151.572 81.9833 149.672 95.0028 149.272V189.522H95ZM105 189.522V149.272C118.019 149.669 129.706 151.572 139.525 153.947C137.939 157.725 136.183 161.317 134.25 164.683C126.111 178.853 115.872 187.486 105.003 189.522H105ZM105 139.269V105H149.483C149.056 119.064 146.819 132.503 142.983 144.517C132.253 141.844 119.369 139.689 105 139.269ZM149.483 95H105V60.7306C119.369 60.3139 132.253 58.1556 142.983 55.4833C146.819 67.4972 149.056 80.9361 149.483 95ZM105 10.4778C115.872 12.5139 126.108 21.1472 134.247 35.3167C136.181 38.6833 137.939 42.275 139.522 46.0528C129.703 48.4278 118.017 50.3306 104.997 50.7278V10.4778H105ZM95 10.4778V50.7278C81.9806 50.3306 70.2944 48.4306 60.475 46.0528C62.0611 42.275 63.8167 38.6806 65.75 35.3167C73.8889 21.1472 84.1278 12.5139 94.9972 10.4778H95ZM95 60.7306V95H50.5167C50.9444 80.9361 53.1806 67.4972 57.0167 55.4833C67.7472 58.1528 80.6306 60.3111 95 60.7278V60.7306ZM164.869 37.7C161.061 39.3389 155.767 41.3972 149.231 43.3972C147.358 38.7917 145.261 34.4111 142.919 30.3333C139.817 24.9306 136.408 20.2028 132.753 16.1833C144.986 20.9806 155.917 28.3778 164.869 37.6972V37.7ZM67.2472 16.1861C63.5917 20.2056 60.1833 24.9333 57.0806 30.3361C54.7389 34.4139 52.6417 38.7944 50.7694 43.4C44.2306 41.4 38.9361 39.3417 35.1306 37.7028C44.0833 28.3833 55.0167 20.9861 67.25 16.1861H67.2472ZM15.9306 67.8806C19.0111 59.8444 23.2222 52.3694 28.3528 45.6278C32.3889 47.475 38.8944 50.1806 47.3833 52.8C43.3056 65.7056 40.9389 80.0556 40.5083 95H10.1417C10.6639 85.4944 12.6722 76.3806 15.9306 67.8806ZM50.5167 105H95V139.269C80.6306 139.686 67.7444 141.844 57.0167 144.514C53.1806 132.5 50.9444 119.061 50.5167 104.997V105ZM35.1306 162.3C38.9389 160.661 44.2333 158.603 50.7694 156.603C52.6417 161.208 54.7389 165.589 57.0806 169.667C60.1833 175.069 63.5944 179.797 67.2472 183.817C55.0139 179.019 44.0806 171.622 35.1278 162.3H35.1306ZM132.753 183.817C136.408 179.797 139.817 175.069 142.919 169.667C145.261 165.589 147.358 161.211 149.231 156.603C155.769 158.603 161.064 160.661 164.869 162.3C155.917 171.619 144.983 179.017 132.753 183.814V183.817ZM184.069 132.125C180.989 140.158 176.778 147.633 171.65 154.378C167.614 152.531 161.108 149.825 152.619 147.206C156.697 134.3 159.064 119.95 159.494 105.003H189.861C189.339 114.508 187.331 123.625 184.072 132.125H184.069Z" fill="white"/>
</g>
<defs>
<clipPath id="clip0_5910_20876">
<rect width="200" height="200" fill="white"/>
</clipPath>
</defs>
</svg>
